<svg version="1.1" id="Layer_1" xmlns="http://www.w3.org/2000/svg" xmlns:xlink="http://www.w3.org/1999/xlink" x="0px" y="0px"
	 width="100%" viewBox="0 0 162 205" enable-background="new 0 0 162 205" xml:space="preserve">
<path fill="#FFFFFF" fill-rule="evenodd" opacity="1.000000" stroke="none" 
	d="
M34.133659,175.882324 
	C26.042471,168.192337 19.652908,159.672836 16.010990,149.437607 
	C11.690762,137.296051 9.038847,125.016029 10.773397,111.795753 
	C13.086851,94.163246 21.155991,79.715904 32.700378,66.780235 
	C33.101421,66.330856 33.729752,66.084320 34.765579,65.408020 
	C34.089851,72.034935 32.998112,78.073051 32.959114,84.117958 
	C32.883198,95.887352 33.150494,107.684456 41.217667,117.555099 
	C44.061142,121.034264 47.831051,122.468544 50.959454,119.686264 
	C52.741367,118.101501 53.432732,113.405029 52.473232,110.945312 
	C47.999935,99.477783 45.626076,87.404602 46.775059,75.532066 
	C48.632236,56.341629 56.970760,39.282497 70.817604,25.701382 
	C77.852036,18.801945 86.386261,13.415210 94.364273,7.509159 
	C95.826317,6.426822 97.874641,6.136435 99.664589,5.475965 
	C98.602333,12.550307 96.937859,19.124283 96.769356,25.736378 
	C96.459206,37.908020 100.883568,48.834991 109.337654,57.421505 
	C116.473969,64.669594 124.797653,70.744942 132.560501,77.380661 
	C146.542130,89.332230 155.199341,104.113396 158.128983,122.533005 
	C159.820541,133.168396 158.059128,142.964722 154.600494,152.768616 
	C150.849365,163.401611 143.748749,171.684952 135.117264,178.458374 
	C115.741776,193.662979 93.618828,197.400528 69.682320,193.292542 
	C56.168510,190.973282 44.871597,184.501221 34.133659,175.882324 
M90.645638,123.360794 
	C93.550323,140.739212 85.720512,151.644882 69.208618,157.411423 
	C70.630043,159.003143 71.404640,160.335617 72.557503,161.090012 
	C84.871666,169.148026 101.966438,169.542969 113.072365,157.159653 
	C123.399101,145.645142 124.391655,126.272736 113.780266,116.160881 
	C105.511864,108.281715 96.138466,101.559341 89.490425,90.860283 
	C84.301308,102.238701 86.051918,112.451508 90.645638,123.360794 
z"/>
</svg>